<svg width="22" height="22" viewBox="0 0 22 22" fill="none" xmlns="http://www.w3.org/2000/svg">
<path d="M11 0C8.82441 0 6.69767 0.645139 4.88873 1.85383C3.07979 3.06253 1.66989 4.78049 0.83733 6.79048C0.00476623 8.80047 -0.213071 11.0122 0.211367 13.146C0.635804 15.2798 1.68345 17.2398 3.22183 18.7782C4.76021 20.3165 6.72022 21.3642 8.85401 21.7886C10.9878 22.2131 13.1995 21.9952 15.2095 21.1627C17.2195 20.3301 18.9375 18.9202 20.1462 17.1113C21.3549 15.3023 22 13.1756 22 11C21.9967 8.08363 20.8367 5.28765 18.7745 3.22547C16.7123 1.16328 13.9164 0.00329961 11 0ZM11 20.5333C9.11449 20.5333 7.27132 19.9742 5.70357 18.9267C4.13582 17.8791 2.91391 16.3902 2.19235 14.6482C1.4708 12.9063 1.28201 10.9894 1.64985 9.14014C2.0177 7.29085 2.92566 5.59217 4.25892 4.25891C5.59218 2.92565 7.29086 2.01769 9.14014 1.64985C10.9894 1.282 12.9063 1.47079 14.6483 2.19235C16.3902 2.9139 17.8791 4.13581 18.9267 5.70356C19.9742 7.27131 20.5333 9.11448 20.5333 11C20.5304 13.5275 19.5251 15.9506 17.7379 17.7379C15.9507 19.5251 13.5275 20.5304 11 20.5333Z" fill="white"/>
<path d="M14.6666 10.2667H11.7333V7.33334C11.7333 7.13885 11.656 6.95232 11.5185 6.81479C11.381 6.67727 11.1945 6.60001 11 6.60001C10.8055 6.60001 10.619 6.67727 10.4814 6.81479C10.3439 6.95232 10.2666 7.13885 10.2666 7.33334V10.2667H7.33331C7.13882 10.2667 6.95229 10.3439 6.81476 10.4815C6.67724 10.619 6.59998 10.8055 6.59998 11C6.59998 11.1945 6.67724 11.381 6.81476 11.5185C6.95229 11.6561 7.13882 11.7333 7.33331 11.7333H10.2666V14.6667C10.2666 14.8612 10.3439 15.0477 10.4814 15.1852C10.619 15.3227 10.8055 15.4 11 15.4C11.1945 15.4 11.381 15.3227 11.5185 15.1852C11.656 15.0477 11.7333 14.8612 11.7333 14.6667V11.7333H14.6666C14.8611 11.7333 15.0477 11.6561 15.1852 11.5185C15.3227 11.381 15.4 11.1945 15.4 11C15.4 10.8055 15.3227 10.619 15.1852 10.4815C15.0477 10.3439 14.8611 10.2667 14.6666 10.2667Z" fill="white"/>
</svg>
