<svg width="29" height="37" viewBox="0 0 29 37" fill="none" xmlns="http://www.w3.org/2000/svg">
<path d="M26.24 14.35H22.55V9.43C22.55 3.49115 19.8132 0 14.35 0C8.8847 0 6.15 3.49115 6.15 9.43V10.25H10.25V8.60795C10.25 5.6457 11.8839 4.1 14.35 4.1C16.8161 4.1 18.45 5.6457 18.45 8.60795V14.35H2.05C0.91635 14.35 0 15.6743 0 16.808V32.8C0 33.9255 0.8774 35.135 1.94955 35.4794L4.4034 36.2727C5.70495 36.6521 7.04979 36.8629 8.405 36.9H20.295C21.6497 36.8632 22.994 36.6517 24.2945 36.2707L26.7464 35.4773C27.8206 35.135 28.7 33.9255 28.7 32.8V16.808C28.7 15.6743 27.3716 14.35 26.24 14.35Z" fill="#727171"/>
</svg>
